<svg width="1200" height="800" viewBox="0 0 1200 800" fill="none" xmlns="http://www.w3.org/2000/svg">
  <rect width="1200" height="800" rx="40" fill="#07101D"/>
  <rect width="1200" height="800" fill="url(#paint0_radial)"/>
  <rect width="1200" height="800" fill="url(#paint1_radial)"/>
  <rect x="92" y="96" width="262" height="608" rx="30" fill="rgba(8,15,28,0.86)" stroke="rgba(255,255,255,0.08)"/>
  <rect x="126" y="138" width="102" height="18" rx="9" fill="#7DF6CB"/>
  <rect x="126" y="184" width="170" height="16" rx="8" fill="#EFF5FF"/>
  <rect x="126" y="236" width="188" height="74" rx="22" fill="rgba(255,255,255,0.05)" stroke="rgba(255,255,255,0.08)"/>
  <rect x="126" y="330" width="188" height="74" rx="22" fill="rgba(148,161,255,0.12)" stroke="rgba(255,255,255,0.08)"/>
  <rect x="126" y="424" width="188" height="74" rx="22" fill="rgba(255,255,255,0.05)" stroke="rgba(255,255,255,0.08)"/>
  <rect x="404" y="96" width="706" height="124" rx="30" fill="rgba(10,18,34,0.82)" stroke="rgba(255,255,255,0.08)"/>
  <rect x="444" y="136" width="244" height="22" rx="11" fill="#94A1FF"/>
  <rect x="444" y="176" width="402" height="16" rx="8" fill="#93A4C0"/>
  <rect x="404" y="254" width="338" height="450" rx="30" fill="rgba(10,18,34,0.82)" stroke="rgba(255,255,255,0.08)"/>
  <rect x="772" y="254" width="338" height="212" rx="30" fill="rgba(125,246,203,0.12)" stroke="rgba(255,255,255,0.08)"/>
  <rect x="772" y="492" width="338" height="212" rx="30" fill="rgba(255,255,255,0.05)" stroke="rgba(255,255,255,0.08)"/>
  <circle cx="1020" cy="140" r="140" fill="#7DF6CB" fill-opacity="0.12"/>
  <circle cx="1090" cy="210" r="180" fill="#94A1FF" fill-opacity="0.12"/>
  <defs>
    <radialGradient id="paint0_radial" cx="0" cy="0" r="1" gradientUnits="userSpaceOnUse" gradientTransform="translate(92 84) rotate(42.2526) scale(700.683 865.871)">
      <stop stop-color="#7DF6CB" stop-opacity="0.18"/>
      <stop offset="1" stop-color="#7DF6CB" stop-opacity="0"/>
    </radialGradient>
    <radialGradient id="paint1_radial" cx="0" cy="0" r="1" gradientUnits="userSpaceOnUse" gradientTransform="translate(1080 100) rotate(144.353) scale(708.377 855.85)">
      <stop stop-color="#94A1FF" stop-opacity="0.18"/>
      <stop offset="1" stop-color="#94A1FF" stop-opacity="0"/>
    </radialGradient>
  </defs>
</svg>
