<svg width="1600" height="1000" viewBox="0 0 1600 1000" fill="none" xmlns="http://www.w3.org/2000/svg">
  <rect width="1600" height="1000" rx="48" fill="#07111F"/>
  <rect width="1600" height="1000" fill="url(#paint0_radial)"/>
  <rect width="1600" height="1000" fill="url(#paint1_radial)"/>
  <rect x="90" y="96" width="520" height="732" rx="36" fill="rgba(8,16,30,0.82)" stroke="rgba(255,255,255,0.08)"/>
  <rect x="132" y="148" width="176" height="24" rx="12" fill="#7DF6CB" fill-opacity="0.85"/>
  <rect x="132" y="204" width="318" height="58" rx="18" fill="#F7FBFF"/>
  <rect x="132" y="286" width="410" height="24" rx="12" fill="#8CA0BF"/>
  <rect x="132" y="326" width="390" height="24" rx="12" fill="#62738E"/>
  <rect x="132" y="398" width="186" height="180" rx="26" fill="rgba(255,255,255,0.05)" stroke="rgba(255,255,255,0.08)"/>
  <rect x="340" y="398" width="214" height="180" rx="26" fill="rgba(148,161,255,0.12)" stroke="rgba(255,255,255,0.08)"/>
  <rect x="132" y="612" width="422" height="160" rx="26" fill="rgba(255,255,255,0.04)" stroke="rgba(255,255,255,0.08)"/>
  <rect x="700" y="152" width="740" height="540" rx="40" fill="rgba(9,18,36,0.74)" stroke="rgba(255,255,255,0.08)"/>
  <rect x="750" y="210" width="176" height="22" rx="11" fill="#94A1FF" fill-opacity="0.9"/>
  <rect x="750" y="262" width="320" height="48" rx="18" fill="#EEF3FF"/>
  <rect x="750" y="336" width="590" height="18" rx="9" fill="#90A0BA"/>
  <rect x="750" y="372" width="540" height="18" rx="9" fill="#62738E"/>
  <rect x="750" y="438" width="290" height="180" rx="28" fill="rgba(255,255,255,0.04)" stroke="rgba(255,255,255,0.08)"/>
  <rect x="1062" y="438" width="326" height="180" rx="28" fill="rgba(125,246,203,0.11)" stroke="rgba(255,255,255,0.08)"/>
  <circle cx="1288" cy="170" r="130" fill="#7DF6CB" fill-opacity="0.12"/>
  <circle cx="1370" cy="264" r="160" fill="#94A1FF" fill-opacity="0.12"/>
  <defs>
    <radialGradient id="paint0_radial" cx="0" cy="0" r="1" gradientUnits="userSpaceOnUse" gradientTransform="translate(116 88) rotate(41.4333) scale(939.641 1155.42)">
      <stop stop-color="#7DF6CB" stop-opacity="0.18"/>
      <stop offset="1" stop-color="#7DF6CB" stop-opacity="0"/>
    </radialGradient>
    <radialGradient id="paint1_radial" cx="0" cy="0" r="1" gradientUnits="userSpaceOnUse" gradientTransform="translate(1440 120) rotate(144.516) scale(774.747 930.561)">
      <stop stop-color="#94A1FF" stop-opacity="0.18"/>
      <stop offset="1" stop-color="#94A1FF" stop-opacity="0"/>
    </radialGradient>
  </defs>
</svg>
