<svg width="1600" height="1000" viewBox="0 0 1600 1000" fill="none" xmlns="http://www.w3.org/2000/svg">
  <rect width="1600" height="1000" rx="48" fill="#050D1A"/>
  <rect width="1600" height="1000" fill="url(#paint0_radial)"/>
  <rect width="1600" height="1000" fill="url(#paint1_radial)"/>
  <rect x="96" y="94" width="1408" height="812" rx="44" fill="rgba(10,18,34,0.82)" stroke="rgba(255,255,255,0.08)"/>
  <rect x="150" y="148" width="240" height="28" rx="14" fill="#7DF6CB" fill-opacity="0.9"/>
  <rect x="150" y="224" width="430" height="60" rx="20" fill="#F7FBFF"/>
  <rect x="150" y="312" width="488" height="20" rx="10" fill="#90A0BA"/>
  <rect x="150" y="348" width="428" height="20" rx="10" fill="#62738E"/>
  <rect x="150" y="420" width="520" height="360" rx="34" fill="rgba(255,255,255,0.04)" stroke="rgba(255,255,255,0.08)"/>
  <rect x="710" y="220" width="706" height="430" rx="34" fill="rgba(255,255,255,0.04)" stroke="rgba(255,255,255,0.08)"/>
  <rect x="760" y="274" width="214" height="22" rx="11" fill="#94A1FF" fill-opacity="0.88"/>
  <rect x="760" y="330" width="340" height="54" rx="18" fill="#EEF3FF"/>
  <rect x="760" y="412" width="548" height="18" rx="9" fill="#9AA8C0"/>
  <rect x="760" y="446" width="506" height="18" rx="9" fill="#62738E"/>
  <rect x="760" y="508" width="246" height="98" rx="22" fill="rgba(125,246,203,0.13)" stroke="rgba(255,255,255,0.08)"/>
  <rect x="1026" y="508" width="340" height="98" rx="22" fill="rgba(148,161,255,0.12)" stroke="rgba(255,255,255,0.08)"/>
  <rect x="758" y="694" width="420" height="108" rx="28" fill="rgba(255,255,255,0.04)" stroke="rgba(255,255,255,0.08)"/>
  <circle cx="1274" cy="228" r="174" fill="#94A1FF" fill-opacity="0.15"/>
  <circle cx="1350" cy="362" r="196" fill="#7DF6CB" fill-opacity="0.12"/>
  <defs>
    <radialGradient id="paint0_radial" cx="0" cy="0" r="1" gradientUnits="userSpaceOnUse" gradientTransform="translate(166 106) rotate(45.1508) scale(1061.61 1277.95)">
      <stop stop-color="#7DF6CB" stop-opacity="0.18"/>
      <stop offset="1" stop-color="#7DF6CB" stop-opacity="0"/>
    </radialGradient>
    <radialGradient id="paint1_radial" cx="0" cy="0" r="1" gradientUnits="userSpaceOnUse" gradientTransform="translate(1408 140) rotate(149.67) scale(912.949 1106.74)">
      <stop stop-color="#94A1FF" stop-opacity="0.2"/>
      <stop offset="1" stop-color="#94A1FF" stop-opacity="0"/>
    </radialGradient>
  </defs>
</svg>
